<svg width="73" height="73" viewBox="0 0 73 73" fill="none" xmlns="http://www.w3.org/2000/svg">
<path d="M10.75 10.75C24.9713 -3.47133 48.0287 -3.47133 62.25 10.75C76.4713 24.9713 76.4713 48.0287 62.25 62.25C48.0287 76.4713 24.9713 76.4713 10.75 62.25C-3.47133 48.0287 -3.47133 24.9713 10.75 10.75Z" fill="#F25471"/>
<path d="M37.0506 14.0003C49.6917 14.0221 59.7111 24.1711 59.9939 36.4196C60.2877 49.4731 49.8767 59.6765 37.6598 59.992C24.5726 60.3292 14.3574 49.9735 14.0093 37.7141C13.6394 24.4757 24.3333 13.935 37.0506 14.0003ZM38.3778 58.3277C38.9435 58.2515 39.9987 58.1754 41.0322 57.9687C46.3411 56.9027 50.6599 54.2158 53.978 49.9408C54.6851 49.038 54.6089 48.1786 53.793 47.3628C51.3127 44.8717 48.8323 42.3807 46.3519 39.8897C45.8406 39.3675 45.4599 39.3675 44.9486 39.8897C42.49 42.3372 40.0205 44.7847 37.5619 47.2214C37.1376 47.6456 36.7895 47.6347 36.3761 47.2214C35.7669 46.6122 35.1577 45.9922 34.5485 45.383C32.6991 43.5229 30.8388 41.6519 28.9894 39.7918C28.5869 39.3893 28.1626 39.3784 27.7819 39.7591C25.2145 42.3046 22.6471 44.8609 20.0906 47.4172C19.3943 48.1133 19.3508 49.0053 19.9383 49.7994C21.5266 51.8988 23.4195 53.6719 25.6496 55.0752C29.381 57.4139 33.4715 58.48 38.3778 58.3277ZM36.1368 44.6651C36.1585 44.491 36.1694 44.4257 36.1694 44.3605C36.1803 39.4328 36.1912 34.4942 36.202 29.5666C36.202 28.8377 35.7995 28.457 35.0706 28.457C29.925 28.4461 24.7793 28.4353 19.6336 28.4244C18.1541 28.4244 17.001 29.2837 16.5985 30.7087C16.4244 31.307 16.2721 31.9162 16.1307 32.5253C15.7934 33.983 15.6411 35.4732 15.652 36.9635C15.652 38.0187 15.7608 39.0738 15.9022 40.1181C16.1198 41.8259 16.5985 43.4794 17.2512 45.0675C17.4905 45.6549 18.0889 45.9704 18.709 45.9378C19.2638 45.9051 19.5901 45.5462 19.9491 45.1981C22.5709 42.5983 25.1818 39.9876 27.8036 37.3877C28.1409 37.0505 28.5651 37.0505 28.9024 37.3877C30.3819 38.8671 31.8614 40.3465 33.33 41.8259C34.2439 42.7397 35.1577 43.6752 36.1368 44.6651ZM37.8339 44.6107C38.0297 44.4257 38.1711 44.2952 38.3125 44.1538C40.5644 41.9129 42.8163 39.6721 45.0682 37.4313C45.4599 37.0397 45.8624 37.0397 46.2432 37.4313C48.9302 40.129 51.6173 42.8267 54.3043 45.5244C55.1202 46.3402 56.3387 46.1227 56.7738 45.0567C57.8943 42.3372 58.4165 39.4981 58.3512 36.5502C58.3077 34.5486 58.0031 32.6015 57.4048 30.687C56.9805 29.3272 55.8491 28.5005 54.424 28.5005C49.3327 28.4896 44.2415 28.4788 39.1502 28.4679C39.0196 28.4679 38.8782 28.4679 38.7477 28.4788C38.3343 28.5114 37.997 28.7833 37.8991 29.1749C37.8556 29.3381 37.8447 29.5122 37.8447 29.6753C37.8338 34.5377 37.823 39.411 37.8121 44.2734C37.8012 44.3605 37.823 44.4475 37.8339 44.6107ZM34.233 15.8604C34.1133 15.8604 34.0698 15.8604 34.0263 15.8604C32.6664 16.0453 31.3392 16.3608 30.0446 16.8177C25.5517 18.4058 21.9617 21.1797 19.2746 25.1175C19.0244 25.4765 18.97 25.8572 19.1876 26.2597C19.3943 26.6404 19.7424 26.7927 20.1667 26.7927C24.5835 26.8036 28.9894 26.8144 33.4062 26.8253C33.515 26.8253 33.6129 26.8144 33.8087 26.8036C31.807 25.4221 30.7518 23.6055 30.8279 21.2232C30.9149 18.8192 32.1225 17.0787 34.233 15.8604ZM40.2707 26.8144C40.423 26.8253 40.4992 26.8253 40.5753 26.8253C45.0138 26.8362 49.4524 26.8471 53.8909 26.858C53.9344 26.858 53.978 26.858 54.0215 26.858C54.8374 26.7927 55.2943 25.9225 54.8156 25.2589C54.2717 24.4866 53.7278 23.7143 53.1077 23.0072C50.1378 19.6024 46.4498 17.3398 42.0548 16.252C41.3695 16.078 40.6732 15.9692 39.977 15.8278C44.2088 18.1339 44.4046 24.269 40.2707 26.8144ZM37.0071 26.0204C39.5418 26.0312 41.6305 23.9971 41.6305 21.4843C41.6305 19.0259 39.7485 16.8721 37.0506 16.8612C34.4723 16.8503 32.4924 18.8627 32.4597 21.4299C32.4162 23.9209 34.5049 25.9986 37.0071 26.0204Z" fill="white"/>
</svg>
